<svg width="10" height="11" viewBox="0 0 10 11" fill="none" xmlns="http://www.w3.org/2000/svg">
<path d="M6.94708 1.19024C7.59916 0.538151 8.6564 0.538151 9.30848 1.19024C9.9334 1.81515 9.95943 2.81216 9.3866 3.46808L9.30848 3.55164L3.54499 9.31513C3.42193 9.43819 3.27389 9.53271 3.11137 9.5926L3.0122 9.62432L0.579218 10.2879C0.371264 10.3446 0.179226 10.1714 0.201755 9.96712L0.210853 9.9195L0.874395 7.48652C0.920184 7.31862 1.00183 7.16311 1.11322 7.03048L1.18358 6.95373L6.94708 1.19024ZM6.43095 2.55517L1.60785 7.37799C1.55247 7.43337 1.50865 7.49886 1.47862 7.57065L1.45325 7.64439L0.927272 9.5708L2.85433 9.04546C2.9047 9.03173 2.95284 9.01154 2.99762 8.98555L3.06212 8.94231L3.12072 8.89087L7.94355 4.06777L6.43095 2.55517ZM8.88422 1.6145C8.48966 1.21994 7.86357 1.19802 7.44328 1.54874L7.37134 1.6145L6.85515 2.13097L8.36775 3.64357L8.88422 3.12738C9.27878 2.73282 9.3007 2.10673 8.94998 1.68644L8.88422 1.6145Z" fill="white"/>
</svg>
