<svg width="80" height="80" viewBox="0 0 80 80" fill="none" xmlns="http://www.w3.org/2000/svg">
<path d="M40 72C57.6731 72 72 57.6731 72 40C72 22.3269 57.6731 8 40 8C22.3269 8 8 22.3269 8 40C8 57.6731 22.3269 72 40 72ZM32 28C32 23.5817 35.5817 20 40 20C44.4183 20 48 23.5817 48 28C48 32.4183 44.4183 36 40 36C35.5817 36 32 32.4183 32 28ZM29.9999 40L50 40C53.3137 40 56 42.6863 56 46C56 50.4643 54.1641 54.0411 51.1514 56.4592C48.1863 58.8392 44.2123 60.0001 40 60.0001C35.7877 60.0001 31.8137 58.8392 28.8486 56.4592C25.8359 54.0411 24 50.4643 24 46C24 42.6864 26.6862 40 29.9999 40Z" fill="#FDFCFF"/>
</svg>
