<svg width="10" height="10" viewBox="0 0 10 10" fill="none" xmlns="http://www.w3.org/2000/svg">
<g clip-path="url(#clip0_556_6495)">
<path d="M5.33015 1.4633C5.53814 1.0056 6.13927 0.896567 6.49476 1.25206L8.90922 3.66652C9.26472 4.02202 9.15568 4.62315 8.69798 4.83113L6.53265 5.81512C6.47189 5.84273 6.42537 5.8944 6.40426 5.95772L5.65603 8.20241C5.62973 8.28132 5.56444 8.34099 5.48349 8.3601C5.40253 8.37921 5.31746 8.35504 5.25864 8.29622L3.73127 6.76886L2.0191 8.48103L2.01813 8.48006H1.68068V8.14261L1.67969 8.14162L3.39186 6.42945L1.86453 4.90211C1.80571 4.8433 1.78154 4.75822 1.80065 4.67727C1.81976 4.59631 1.87943 4.53103 1.95834 4.50472L4.20394 3.75619C4.26726 3.73508 4.31893 3.68856 4.34654 3.6278L5.33015 1.4633Z" fill="#FDFCFF"/>
</g>
<defs>
<clipPath id="clip0_556_6495">
<rect width="9.6" height="9.6" fill="white" transform="translate(0.0390625 0.120117)"/>
</clipPath>
</defs>
</svg>
