<svg width="12" height="11" viewBox="0 0 12 11" fill="none" xmlns="http://www.w3.org/2000/svg">
<path d="M7.125 6.25C7.74632 6.25 8.25 6.75368 8.25 7.375V7.75C8.25 9.22858 6.85537 10.75 4.5 10.75C2.14463 10.75 0.75 9.22858 0.75 7.75V7.375C0.75 6.75368 1.25368 6.25 1.875 6.25H7.125ZM7.125 7H1.875C1.66789 7 1.5 7.16789 1.5 7.375V7.75C1.5 8.82824 2.57412 10 4.5 10C6.42588 10 7.5 8.82824 7.5 7.75V7.375C7.5 7.16789 7.33211 7 7.125 7ZM4.5 1.375C5.63909 1.375 6.5625 2.29841 6.5625 3.4375C6.5625 4.57659 5.63909 5.5 4.5 5.5C3.36091 5.5 2.4375 4.57659 2.4375 3.4375C2.4375 2.29841 3.36091 1.375 4.5 1.375ZM4.5 2.125C3.77513 2.125 3.1875 2.71263 3.1875 3.4375C3.1875 4.16237 3.77513 4.75 4.5 4.75C5.22487 4.75 5.8125 4.16237 5.8125 3.4375C5.8125 2.71263 5.22487 2.125 4.5 2.125ZM8.08823 0.316443L8.14017 0.359835L9.375 1.59475L10.6098 0.359835C10.7563 0.213388 10.9937 0.213388 11.1402 0.359835C11.2866 0.506282 11.2866 0.743719 11.1402 0.890165L9.90525 2.125L11.1402 3.35984C11.2703 3.49001 11.2848 3.69208 11.1836 3.83823L11.1402 3.89016C11.01 4.02034 10.8079 4.0348 10.6618 3.93356L10.6098 3.89016L9.375 2.65525L8.14017 3.89016C7.99372 4.03661 7.75628 4.03661 7.60983 3.89016C7.46339 3.74372 7.46339 3.50628 7.60983 3.35984L8.84475 2.125L7.60983 0.890165C7.47966 0.75999 7.4652 0.557922 7.56644 0.411771L7.60983 0.359835C7.72374 0.245932 7.89268 0.22062 8.03105 0.2839L8.08823 0.316443Z" fill="white"/>
</svg>
