<svg width="9" height="8" viewBox="0 0 9 8" fill="none" xmlns="http://www.w3.org/2000/svg">
<path d="M4.33014 0.4633C4.53813 0.00560349 5.13925 -0.103433 5.49475 0.252057L7.90921 2.66652C8.2647 3.02202 8.15566 3.62315 7.69797 3.83113L5.53264 4.81512C5.47188 4.84273 5.42536 4.8944 5.40425 4.95772L4.65602 7.20241C4.62971 7.28132 4.56443 7.34099 4.48347 7.3601C4.40252 7.37921 4.31744 7.35504 4.25863 7.29622L2.73126 5.76886L1.0191 7.48102L1.01814 7.48006H0.68067V7.14259L0.679688 7.14161L2.39185 5.42945L0.864515 3.90211C0.805699 3.8433 0.781531 3.75822 0.800641 3.67727C0.819752 3.59631 0.879416 3.53103 0.958326 3.50472L3.20393 2.75619C3.26725 2.73508 3.31892 2.68856 3.34653 2.6278L4.33014 0.4633ZM5.15533 0.591468C5.03684 0.472971 4.83646 0.509317 4.76713 0.661883L3.78353 2.82638C3.70069 3.00867 3.54568 3.14824 3.35572 3.21156L1.47852 3.83729L4.32345 6.68222L4.94888 4.80593C5.0122 4.61597 5.15176 4.46096 5.33406 4.37812L7.49939 3.39414C7.65195 3.32481 7.6883 3.12443 7.5698 3.00594L5.15533 0.591468Z" fill="white"/>
</svg>
