<?xml version="1.0" encoding="UTF-8"?>
<!DOCTYPE svg PUBLIC "-//W3C//DTD SVG 1.1//EN" "http://www.w3.org/Graphics/SVG/1.1/DTD/svg11.dtd">
<svg xmlns="http://www.w3.org/2000/svg" version="1.1" width="799px" height="1612px" style="shape-rendering:geometricPrecision; text-rendering:geometricPrecision; image-rendering:optimizeQuality; fill-rule:evenodd; clip-rule:evenodd" xmlns:xlink="http://www.w3.org/1999/xlink">
<g><path style="opacity:0.997" fill="#323232" d="M 95.5,-0.5 C 297.833,-0.5 500.167,-0.5 702.5,-0.5C 747.939,9.10675 775.106,36.7734 784,82.5C 784.5,139.499 784.667,196.499 784.5,253.5C 790.865,254.007 795.532,257.007 798.5,262.5C 798.5,324.833 798.5,387.167 798.5,449.5C 795.556,455.098 790.889,457.765 784.5,457.5C 784.667,814.5 784.5,1171.5 784,1528.5C 775.106,1574.23 747.939,1601.89 702.5,1611.5C 500.167,1611.5 297.833,1611.5 95.5,1611.5C 50.5134,1602.01 23.3467,1574.68 14,1529.5C 13.5,1203.5 13.3333,877.5 13.5,551.5C 7.30202,551.404 2.63536,548.737 -0.5,543.5C -0.5,503.5 -0.5,463.5 -0.5,423.5C 2.40863,417.955 7.0753,415.288 13.5,415.5C 13.5,406.833 13.5,398.167 13.5,389.5C 7.16637,390.333 2.4997,388 -0.5,382.5C -0.5,342.167 -0.5,301.833 -0.5,261.5C 2.60862,256.274 7.27529,253.608 13.5,253.5C 13.3333,196.166 13.5,138.832 14,81.5C 23.3467,36.3203 50.5134,8.98693 95.5,-0.5 Z"/></g>
<g><path style="opacity:1" fill="#232934" d="M 756.5,174.5 C 518.167,174.5 279.833,174.5 41.5,174.5C 41.3334,141.498 41.5,108.498 42,75.5C 45.6151,53.1063 57.7818,37.2729 78.5,28C 83.2837,25.8873 88.2837,24.5539 93.5,24C 297.833,23.3333 502.167,23.3333 706.5,24C 734.156,29.9881 750.656,46.8214 756,74.5C 756.5,107.832 756.667,141.165 756.5,174.5 Z"/></g>
<g><path style="opacity:1" fill="#efeef2" d="M 123.5,129.5 C 114.143,129.168 104.81,129.502 95.5,130.5C 95.6236,131.107 95.9569,131.44 96.5,131.5C 98.8337,134.666 101.667,137.333 105,139.5C 105.49,140.793 105.657,142.127 105.5,143.5C 103.692,143.509 102.025,143.009 100.5,142C 95.7865,137.622 91.4532,132.956 87.5,128C 92.1208,122.377 97.1208,117.044 102.5,112C 103.448,111.517 104.448,111.351 105.5,111.5C 105.657,112.873 105.49,114.207 105,115.5C 101.833,118.667 98.6667,121.833 95.5,125C 104.833,125.333 114.167,125.667 123.5,126C 124.791,127.292 124.791,128.458 123.5,129.5 Z"/></g>
<g><path style="opacity:1" fill="#ecebef" d="M 431.5,112.5 C 436.569,111.909 441.236,112.909 445.5,115.5C 445.009,118.736 443.676,119.236 441.5,117C 438.167,116.333 434.833,116.333 431.5,117C 429.398,118.733 429.065,120.733 430.5,123C 434.321,124.832 438.321,126.166 442.5,127C 447.426,130.912 447.759,135.245 443.5,140C 436.757,142.509 430.424,141.843 424.5,138C 425.047,137.075 425.713,136.242 426.5,135.5C 431.771,139.384 436.938,139.384 442,135.5C 442.72,133.888 442.554,132.388 441.5,131C 438.216,129.875 434.883,128.875 431.5,128C 426.383,126.268 424.55,122.768 426,117.5C 427.352,115.251 429.185,113.584 431.5,112.5 Z"/></g>
<g><path style="opacity:1" fill="#999ba2" d="M 357.5,141.5 C 357.5,132.167 357.5,122.833 357.5,113.5C 356.5,113.5 355.5,113.5 354.5,113.5C 354.5,122.833 354.5,132.167 354.5,141.5C 353.506,132.014 353.173,122.348 353.5,112.5C 355.167,112.5 356.833,112.5 358.5,112.5C 358.827,122.348 358.494,132.014 357.5,141.5 Z"/></g>
<g><path style="opacity:1" fill="#fcfbfe" d="M 357.5,141.5 C 356.5,141.5 355.5,141.5 354.5,141.5C 354.5,132.167 354.5,122.833 354.5,113.5C 355.5,113.5 356.5,113.5 357.5,113.5C 357.5,122.833 357.5,132.167 357.5,141.5 Z"/></g>
<g><path style="opacity:1" fill="#c4c4c9" d="M 381.5,113.5 C 376.833,113.5 372.167,113.5 367.5,113.5C 367.5,122.833 367.5,132.167 367.5,141.5C 366.506,132.014 366.173,122.348 366.5,112.5C 371.695,112.179 376.695,112.513 381.5,113.5 Z"/></g>
<g><path style="opacity:1" fill="#f4f3f6" d="M 381.5,113.5 C 388.579,114.974 391.079,119.308 389,126.5C 387.833,129 386,130.833 383.5,132C 385.833,135 388.167,138 390.5,141C 388.833,141.667 387.167,141.667 385.5,141C 383.743,138.154 381.743,135.488 379.5,133C 376.518,132.502 373.518,132.335 370.5,132.5C 370.5,135.5 370.5,138.5 370.5,141.5C 369.5,141.5 368.5,141.5 367.5,141.5C 367.5,132.167 367.5,122.833 367.5,113.5C 372.167,113.5 376.833,113.5 381.5,113.5 Z"/></g>
<g><path style="opacity:1" fill="#f1f0f3" d="M 396.5,112.5 C 402.176,112.334 407.843,112.501 413.5,113C 420.165,116.151 421.165,120.651 416.5,126.5C 420.314,129.187 421.48,132.853 420,137.5C 418.786,139.049 417.286,140.215 415.5,141C 409.175,141.5 402.842,141.666 396.5,141.5C 396.5,131.833 396.5,122.167 396.5,112.5 Z"/></g>
<g><path style="opacity:1" fill="#242a35" d="M 371.5,116.5 C 374.85,116.335 378.183,116.502 381.5,117C 385.213,118.691 386.379,121.525 385,125.5C 384.28,127.056 383.113,128.056 381.5,128.5C 378.167,128.5 374.833,128.5 371.5,128.5C 371.5,124.5 371.5,120.5 371.5,116.5 Z"/></g>
<g><path style="opacity:1" fill="#2a303b" d="M 400.5,116.5 C 404.846,116.334 409.179,116.501 413.5,117C 416.265,119.966 415.932,122.633 412.5,125C 408.514,125.499 404.514,125.666 400.5,125.5C 400.5,122.5 400.5,119.5 400.5,116.5 Z"/></g>
<g><path style="opacity:1" fill="#61656e" d="M 371.5,116.5 C 371.5,120.5 371.5,124.5 371.5,128.5C 374.833,128.5 378.167,128.5 381.5,128.5C 378.038,129.482 374.371,129.815 370.5,129.5C 370.182,124.968 370.515,120.634 371.5,116.5 Z"/></g>
<g><path style="opacity:1" fill="#2a303b" d="M 400.5,128.5 C 404.846,128.334 409.179,128.501 413.5,129C 416.306,130.305 417.14,132.472 416,135.5C 415.097,136.701 413.931,137.535 412.5,138C 408.514,138.499 404.514,138.666 400.5,138.5C 400.5,135.167 400.5,131.833 400.5,128.5 Z"/></g>
<g><path style="opacity:1" fill="#595d66" d="M 123.5,129.5 C 114.5,130.167 105.5,130.833 96.5,131.5C 95.9569,131.44 95.6236,131.107 95.5,130.5C 104.81,129.502 114.143,129.168 123.5,129.5 Z"/></g>
<g><path style="opacity:1" fill="#1c1c1e" d="M 41.5,174.5 C 279.833,174.5 518.167,174.5 756.5,174.5C 756.997,630.528 756.497,1086.53 755,1542.5C 746.791,1569.72 728.624,1584.88 700.5,1588C 498.5,1588.67 296.5,1588.67 94.5,1588C 65.4952,1582.66 47.9952,1565.5 42,1536.5C 41.5,1082.5 41.3333,628.5 41.5,174.5 Z"/></g>
</svg>
